<svg width="24" height="24" viewBox="0 0 24 24" fill="none" xmlns="http://www.w3.org/2000/svg">
<g clip-path="url(#clip0_444_133)">
<path d="M12 12.0005C10.9 12.0005 10 11.1005 10 10.0005C10 8.90049 10.9 8.00049 12 8.00049C13.1 8.00049 14 8.90049 14 10.0005C14 11.1005 13.1 12.0005 12 12.0005ZM18 10.2005C18 6.57049 15.35 4.00049 12 4.00049C8.65 4.00049 6 6.57049 6 10.2005C6 12.5405 7.95 15.6405 12 19.3405C16.05 15.6405 18 12.5405 18 10.2005ZM12 2.00049C16.2 2.00049 20 5.22049 20 10.2005C20 13.5205 17.33 17.4505 12 22.0005C6.67 17.4505 4 13.5205 4 10.2005C4 5.22049 7.8 2.00049 12 2.00049Z" fill="#323232"/>
</g>
<defs>
<clipPath id="clip0_444_133">
<rect width="24" height="24" fill="white" transform="translate(0 0.000488281)"/>
</clipPath>
</defs>
</svg>
