<svg width="30" height="30" viewBox="0 0 30 30" fill="none" xmlns="http://www.w3.org/2000/svg">
<circle cx="15" cy="15.0005" r="15" fill="#2F89CE"/>
<path d="M7.01303 15.281L10.4616 16.567L11.8059 20.8923C11.8644 21.1845 12.2151 21.243 12.4489 21.0676L14.3778 19.4895C14.5531 19.3141 14.8454 19.3141 15.0792 19.4895L18.5277 22.0028C18.7615 22.1782 19.1122 22.0613 19.1707 21.769L21.7425 9.49448C21.8009 9.20223 21.5087 8.90998 21.2164 9.02688L7.01303 14.5212C6.66232 14.6381 6.66232 15.1641 7.01303 15.281ZM11.6306 15.924L18.4108 11.774C18.5277 11.7156 18.6446 11.8909 18.5277 11.9494L12.975 17.1515C12.7996 17.3268 12.6242 17.5606 12.6242 17.8529L12.4489 19.2557C12.4489 19.431 12.1566 19.4895 12.0982 19.2557L11.3968 16.6839C11.2214 16.3916 11.3384 16.0409 11.6306 15.924Z" fill="white"/>
</svg>
