<svg width="30" height="30" viewBox="0 0 30 30" fill="none" xmlns="http://www.w3.org/2000/svg">
<circle cx="15" cy="15.0005" r="15" fill="#48C95F"/>
<path d="M20.9451 9.04736C19.4634 7.5708 17.4878 6.75049 15.4024 6.75049C11.0671 6.75049 7.55488 10.2505 7.55488 14.5708C7.55488 15.938 7.93902 17.3052 8.59756 18.4536L7.5 22.5005L11.6707 21.4067C12.8232 22.0083 14.0854 22.3364 15.4024 22.3364C19.7378 22.3364 23.25 18.8364 23.25 14.5161C23.1951 12.4927 22.4268 10.5239 20.9451 9.04736ZM19.189 17.3599C19.0244 17.7974 18.2561 18.2349 17.872 18.2895C17.5427 18.3442 17.1037 18.3442 16.6646 18.2349C16.3902 18.1255 16.0061 18.0161 15.5671 17.7974C13.5915 16.9771 12.3293 15.0083 12.2195 14.8442C12.1098 14.7349 11.3963 13.8052 11.3963 12.8208C11.3963 11.8364 11.8902 11.3989 12.0549 11.1802C12.2195 10.9614 12.439 10.9614 12.6037 10.9614C12.7134 10.9614 12.878 10.9614 12.9878 10.9614C13.0976 10.9614 13.2622 10.9067 13.4268 11.2896C13.5915 11.6724 13.9756 12.6567 14.0305 12.7114C14.0854 12.8208 14.0854 12.9302 14.0305 13.0396C13.9756 13.1489 13.9207 13.2583 13.811 13.3677C13.7012 13.477 13.5915 13.6411 13.5366 13.6958C13.4268 13.8052 13.3171 13.9145 13.4268 14.0786C13.5366 14.2974 13.9207 14.8989 14.5244 15.4458C15.2927 16.102 15.8963 16.3208 16.1159 16.4302C16.3354 16.5396 16.4451 16.4849 16.5549 16.3755C16.6646 16.2661 17.0488 15.8286 17.1585 15.6099C17.2683 15.3911 17.4329 15.4458 17.5976 15.5005C17.7622 15.5552 18.75 16.0474 18.9146 16.1567C19.1341 16.2661 19.2439 16.3208 19.2988 16.3755C19.3537 16.5395 19.3537 16.9224 19.189 17.3599Z" fill="white"/>
</svg>
